<svg width="42" height="42" viewBox="0 0 42 42" fill="none" xmlns="http://www.w3.org/2000/svg">
<path d="M14.7 21L23.1 29.4L23.1 12.6L14.7 21ZM-9.17939e-07 21C-7.90958e-07 18.095 0.551601 15.365 1.6548 12.81C2.758 10.255 4.2539 8.0325 6.1425 6.1425C8.0325 4.2525 10.255 2.7566 12.81 1.6548C15.365 0.552999 18.095 0.00139896 21 -9.17939e-07C23.905 -7.90958e-07 26.635 0.551599 29.19 1.6548C31.745 2.758 33.9675 4.2539 35.8575 6.1425C37.7475 8.0325 39.2434 10.255 40.3452 12.81C41.447 15.365 41.9986 18.095 42 21C42 23.905 41.4484 26.635 40.3452 29.19C39.242 31.745 37.7461 33.9675 35.8575 35.8575C33.9675 37.7475 31.745 39.2441 29.19 40.3473C26.635 41.4505 23.905 42.0014 21 42C18.095 42 15.365 41.4484 12.81 40.3452C10.255 39.242 8.0325 37.7461 6.1425 35.8575C4.2525 33.9675 2.7559 31.745 1.6527 29.19C0.549502 26.635 -0.00140104 23.905 -9.17939e-07 21Z" fill="black"/>
</svg>
